<svg width="510" height="60" viewBox="0 0 510 60" fill="none" xmlns="http://www.w3.org/2000/svg">
<circle cx="210" cy="30" r="30" fill="#2C2C2C"/>
<circle cx="210" cy="30" r="22" fill="#7A66CC"/>
<g clip-path="url(#clip0_0_179)">
<path d="M210 18C206.74 18 206.333 18.015 205.053 18.072C203.775 18.132 202.905 18.333 202.14 18.63C201.351 18.936 200.681 19.347 200.014 20.014C199.347 20.681 198.935 21.35 198.63 22.14C198.333 22.905 198.131 23.775 198.072 25.053C198.012 26.333 198 26.74 198 30C198 33.26 198.015 33.667 198.072 34.947C198.132 36.224 198.333 37.095 198.63 37.86C198.936 38.648 199.347 39.319 200.014 39.986C200.681 40.652 201.35 41.065 202.14 41.37C202.906 41.666 203.776 41.869 205.053 41.928C206.333 41.988 206.74 42 210 42C213.26 42 213.667 41.985 214.947 41.928C216.224 41.868 217.095 41.666 217.86 41.37C218.648 41.064 219.319 40.652 219.986 39.986C220.652 39.319 221.065 38.651 221.37 37.86C221.666 37.095 221.869 36.224 221.928 34.947C221.988 33.667 222 33.26 222 30C222 26.74 221.985 26.333 221.928 25.053C221.868 23.776 221.666 22.904 221.37 22.14C221.064 21.351 220.652 20.681 219.986 20.014C219.319 19.347 218.651 18.935 217.86 18.63C217.095 18.333 216.224 18.131 214.947 18.072C213.667 18.012 213.26 18 210 18ZM210 20.16C213.203 20.16 213.585 20.176 214.85 20.231C216.02 20.286 216.655 20.48 217.077 20.646C217.639 20.863 218.037 21.123 218.459 21.542C218.878 21.962 219.138 22.361 219.355 22.923C219.519 23.345 219.715 23.98 219.768 25.15C219.825 26.416 219.838 26.796 219.838 30C219.838 33.204 219.823 33.585 219.764 34.85C219.703 36.02 219.508 36.655 219.343 37.077C219.119 37.639 218.864 38.037 218.444 38.459C218.025 38.878 217.62 39.138 217.064 39.355C216.644 39.519 215.999 39.715 214.829 39.768C213.555 39.825 213.18 39.838 209.97 39.838C206.759 39.838 206.384 39.823 205.111 39.764C203.94 39.703 203.295 39.508 202.875 39.343C202.306 39.119 201.915 38.864 201.496 38.444C201.075 38.025 200.806 37.62 200.596 37.064C200.431 36.644 200.237 35.999 200.176 34.829C200.131 33.569 200.115 33.18 200.115 29.985C200.115 26.789 200.131 26.399 200.176 25.124C200.237 23.954 200.431 23.31 200.596 22.89C200.806 22.32 201.075 21.93 201.496 21.509C201.915 21.09 202.306 20.82 202.875 20.611C203.295 20.445 203.926 20.25 205.096 20.19C206.371 20.145 206.746 20.13 209.955 20.13L210 20.16ZM210 23.838C206.595 23.838 203.838 26.598 203.838 30C203.838 33.405 206.598 36.162 210 36.162C213.405 36.162 216.162 33.402 216.162 30C216.162 26.595 213.402 23.838 210 23.838ZM210 34C207.79 34 206 32.21 206 30C206 27.79 207.79 26 210 26C212.21 26 214 27.79 214 30C214 32.21 212.21 34 210 34ZM217.846 23.595C217.846 24.39 217.2 25.035 216.406 25.035C215.611 25.035 214.966 24.389 214.966 23.595C214.966 22.801 215.612 22.156 216.406 22.156C217.199 22.155 217.846 22.801 217.846 23.595Z" fill="white"/>
</g>
<circle cx="30" cy="30" r="30" fill="#2C2C2C"/>
<circle cx="30" cy="30" r="22" fill="#7A66CC"/>
<g clip-path="url(#clip1_0_179)">
<path d="M25.078 40.55C24.605 40.234 24.185 39.847 23.834 39.4C23.451 38.937 23.096 38.45 22.77 37.946C22.004 36.826 21.405 35.601 20.99 34.31C20.49 32.808 20.247 31.37 20.247 29.963C20.247 28.393 20.587 27.023 21.249 25.873C21.739 24.973 22.469 24.22 23.349 23.691C24.199 23.161 25.189 22.871 26.189 22.851C26.539 22.851 26.919 22.901 27.319 23.001C27.609 23.081 27.959 23.211 28.389 23.371C28.939 23.581 29.239 23.711 29.339 23.741C29.659 23.861 29.929 23.911 30.139 23.911C30.299 23.911 30.529 23.861 30.784 23.781C30.929 23.731 31.204 23.641 31.594 23.471C31.98 23.331 32.286 23.211 32.529 23.121C32.899 23.011 33.257 22.911 33.579 22.861C33.969 22.801 34.356 22.781 34.727 22.811C35.437 22.861 36.087 23.011 36.667 23.231C37.687 23.641 38.51 24.281 39.124 25.191C38.864 25.351 38.624 25.537 38.399 25.741C37.912 26.171 37.499 26.681 37.169 27.246C36.739 28.016 36.519 28.886 36.525 29.766C36.54 30.849 36.815 31.801 37.365 32.626C37.752 33.226 38.269 33.74 38.899 34.162C39.209 34.372 39.481 34.517 39.739 34.612C39.619 34.987 39.487 35.352 39.334 35.712C38.987 36.519 38.574 37.292 38.084 38.022C37.652 38.652 37.312 39.122 37.054 39.432C36.652 39.912 36.264 40.272 35.874 40.529C35.444 40.814 34.939 40.965 34.422 40.965C34.072 40.98 33.722 40.935 33.388 40.838C33.098 40.743 32.812 40.636 32.532 40.515C32.239 40.381 31.936 40.267 31.627 40.175C31.247 40.075 30.857 40.027 30.463 40.028C30.063 40.028 29.673 40.078 29.303 40.173C28.993 40.261 28.693 40.369 28.396 40.498C27.976 40.673 27.701 40.788 27.541 40.838C27.217 40.934 26.885 40.992 26.551 41.013C26.031 41.013 25.547 40.863 25.065 40.563L25.078 40.55ZM31.932 22.09C31.252 22.43 30.606 22.574 29.959 22.526C29.859 21.88 29.959 21.216 30.229 20.489C30.469 19.869 30.789 19.309 31.229 18.809C31.689 18.289 32.239 17.859 32.859 17.549C33.519 17.209 34.149 17.029 34.749 16.999C34.829 17.679 34.749 18.349 34.499 19.069C34.271 19.709 33.931 20.299 33.499 20.829C33.064 21.349 32.524 21.779 31.913 22.089L31.932 22.09Z" fill="white"/>
</g>
<circle cx="120" cy="30" r="30" fill="#2C2C2C"/>
<circle cx="120" cy="30" r="22" fill="#7A66CC"/>
<g clip-path="url(#clip2_0_179)">
<path d="M120 18C113.4 18 108 23.4 108 30C108 36.6 113.4 42 120 42C126.6 42 132 36.6 132 30C132 23.4 126.66 18 120 18ZM125.521 35.34C125.281 35.699 124.861 35.82 124.5 35.58C121.68 33.84 118.14 33.479 113.939 34.439C113.521 34.561 113.16 34.26 113.04 33.9C112.92 33.479 113.22 33.12 113.58 33C118.14 31.979 122.1 32.4 125.22 34.32C125.64 34.5 125.699 34.979 125.521 35.34ZM126.961 32.04C126.66 32.46 126.12 32.64 125.699 32.34C122.46 30.36 117.54 29.76 113.76 30.96C113.281 31.08 112.74 30.84 112.62 30.36C112.5 29.88 112.74 29.339 113.22 29.219C117.6 27.9 123 28.561 126.72 30.84C127.081 31.021 127.26 31.62 126.961 32.04ZM127.081 28.68C123.24 26.4 116.82 26.16 113.16 27.301C112.56 27.48 111.96 27.12 111.78 26.58C111.6 25.979 111.96 25.38 112.5 25.199C116.76 23.939 123.78 24.179 128.221 26.82C128.76 27.12 128.94 27.84 128.64 28.38C128.341 28.801 127.62 28.979 127.081 28.68Z" fill="white"/>
</g>
<circle cx="300" cy="30" r="30" fill="#2C2C2C"/>
<circle cx="300" cy="30" r="22" fill="#7A66CC"/>
<g clip-path="url(#clip3_0_179)">
<path d="M311.499 24.2031C311.36 23.7046 311.095 23.2504 310.729 22.8844C310.363 22.5185 309.908 22.2531 309.41 22.1141C307.54 21.6131 300.01 21.6131 300.01 21.6131C300.01 21.6131 292.501 21.6031 290.611 22.1141C290.113 22.2534 289.659 22.5189 289.293 22.8851C288.927 23.2512 288.662 23.7055 288.523 24.2041C288.168 26.1189 287.993 28.0627 288 30.0101C287.994 31.9504 288.17 33.8871 288.523 35.7951C288.662 36.2934 288.927 36.7475 289.293 37.1135C289.659 37.4794 290.113 37.7448 290.611 37.8841C292.48 38.3861 300.011 38.3861 300.011 38.3861C300.011 38.3861 307.519 38.3861 309.41 37.8841C309.909 37.7449 310.363 37.4794 310.729 37.1133C311.095 36.7471 311.36 36.2927 311.499 35.7941C311.845 33.8857 312.012 31.9494 311.999 30.0101C312.014 28.0627 311.846 26.1182 311.499 24.2021V24.2031ZM297.608 33.6031V26.4071L303.874 30.0111L297.608 33.6031Z" fill="white"/>
</g>
<circle cx="390" cy="30" r="30" fill="#2C2C2C"/>
<circle cx="390" cy="30" r="22" fill="#7A66CC"/>
<g clip-path="url(#clip4_0_179)">
<path d="M401.954 22.5691C401.069 22.9581 400.124 23.2231 399.129 23.3441C400.143 22.7331 400.923 21.7701 401.292 20.6211C400.341 21.1761 399.287 21.5801 398.165 21.8051C397.269 20.8461 395.992 20.2461 394.574 20.2461C391.857 20.2461 389.654 22.4491 389.654 25.1631C389.654 25.5531 389.699 25.9281 389.781 26.2871C385.691 26.0941 382.066 24.1301 379.64 21.1611C379.213 21.8831 378.974 22.7221 378.974 23.6361C378.974 25.3461 379.844 26.8491 381.162 27.7321C380.355 27.7061 379.596 27.4841 378.934 27.1161V27.1771C378.934 29.5621 380.627 31.5511 382.88 32.0041C382.467 32.1151 382.031 32.1751 381.584 32.1751C381.27 32.1751 380.969 32.1451 380.668 32.0891C381.299 34.0421 383.113 35.4661 385.272 35.5061C383.592 36.8251 381.463 37.6111 379.17 37.6111C378.78 37.6111 378.391 37.5881 378 37.5441C380.189 38.9381 382.768 39.7531 385.557 39.7531C394.611 39.7531 399.556 32.2571 399.556 25.7671C399.556 25.5581 399.556 25.3471 399.541 25.1371C400.502 24.4481 401.341 23.5771 402.001 22.5891L401.954 22.5691Z" fill="white"/>
</g>
<circle cx="480" cy="30" r="30" fill="#2C2C2C"/>
<circle cx="480" cy="30" r="22" fill="#7A66CC"/>
<g clip-path="url(#clip5_0_179)">
<path d="M491.998 29.9991C491.998 23.3722 486.626 18 479.999 18C473.372 18 468 23.3722 468 29.9991C468 35.9882 472.388 40.9522 478.124 41.8524V33.4676H475.078V29.9991H478.124V27.3555C478.124 24.3483 479.916 22.6871 482.656 22.6871C483.969 22.6871 485.342 22.9215 485.342 22.9215V25.8744H483.829C482.339 25.8744 481.874 26.7993 481.874 27.7482V29.9991H485.202L484.67 33.4676H481.874V41.8524C487.61 40.9522 491.998 35.9882 491.998 29.9991Z" fill="white"/>
</g>
<defs>
<clipPath id="clip0_0_179">
<rect width="24" height="24" fill="white" transform="translate(198 18)"/>
</clipPath>
<clipPath id="clip1_0_179">
<rect width="24" height="24" fill="white" transform="translate(18 17)"/>
</clipPath>
<clipPath id="clip2_0_179">
<rect width="24" height="24" fill="white" transform="translate(108 18)"/>
</clipPath>
<clipPath id="clip3_0_179">
<rect width="24" height="24" fill="white" transform="translate(288 18)"/>
</clipPath>
<clipPath id="clip4_0_179">
<rect width="24" height="24" fill="white" transform="translate(378 18)"/>
</clipPath>
<clipPath id="clip5_0_179">
<rect width="24" height="24" fill="white" transform="translate(468 18)"/>
</clipPath>
</defs>
</svg>
